<svg width="15" height="16" viewBox="0 0 15 16" fill="none" xmlns="http://www.w3.org/2000/svg">
<path d="M9.20153 0.29847L9.17685 0.323155L9.20153 0.29847C9.17506 0.272005 9.14364 0.251013 9.10907 0.236691C9.07449 0.222369 9.03743 0.214999 9 0.215H0.5C0.424413 0.215 0.351922 0.245027 0.298475 0.298475C0.245027 0.351922 0.215 0.424413 0.215 0.5V15.5C0.215 15.5756 0.245027 15.6481 0.298475 15.7015C0.351922 15.755 0.424413 15.785 0.5 15.785H11C11.0756 15.785 11.1481 15.755 11.2015 15.7015C11.255 15.6481 11.285 15.5756 11.285 15.5V15.0215C12.031 14.9502 12.7248 14.6058 13.2326 14.0537C13.7477 13.4937 14.0341 12.7609 14.035 12V12C14.0341 11.2391 13.7477 10.5063 13.2326 9.9463C12.7248 9.39422 12.031 9.04976 11.285 8.97851V2.5C11.285 2.46257 11.2776 2.42551 11.2633 2.39093C11.249 2.35636 11.228 2.32494 11.2015 2.29847L9.20153 0.29847ZM9.285 2.215V1.18803L10.312 2.215H9.285ZM0.785 15.215V0.785H8.715V2.5C8.715 2.57559 8.74503 2.64808 8.79847 2.70153C8.85192 2.75497 8.92441 2.785 9 2.785H10.715V8.97848C9.96881 9.04905 9.27468 9.39333 8.76681 9.94559C8.25168 10.5057 7.96578 11.239 7.96578 12C7.96578 12.761 8.25168 13.4943 8.76681 14.0544C9.27468 14.6067 9.96881 14.9509 10.715 15.0215V15.215H0.785ZM11 14.465C10.5124 14.465 10.0359 14.3204 9.63052 14.0496C9.22515 13.7787 8.90921 13.3937 8.72264 12.9433C8.53607 12.4929 8.48725 11.9973 8.58236 11.5191C8.67748 11.0409 8.91225 10.6017 9.25698 10.257C9.60172 9.91225 10.0409 9.67748 10.5191 9.58236C10.9973 9.48725 11.4929 9.53607 11.9433 9.72264C12.3937 9.90921 12.7787 10.2252 13.0496 10.6305C13.3204 11.0359 13.465 11.5124 13.465 12C13.4643 12.6535 13.2043 13.2801 12.7422 13.7422C12.2801 14.2043 11.6535 14.4643 11 14.465Z" fill="black" stroke="black" stroke-width="0.07"/>
<path d="M11.2015 13.2016L11.2015 13.2016C11.1566 13.2466 11.0979 13.2752 11.0348 13.2829C10.9717 13.2907 10.9078 13.2771 10.8534 13.2444L9.60337 12.4944C9.57128 12.4751 9.54329 12.4498 9.52101 12.4197C9.49873 12.3896 9.48259 12.3554 9.47351 12.3191C9.46443 12.2828 9.4626 12.2451 9.4681 12.2081C9.47361 12.171 9.48636 12.1355 9.50562 12.1034C9.52487 12.0713 9.55026 12.0433 9.58033 12.021C9.6104 11.9987 9.64457 11.9826 9.68088 11.9735C9.71719 11.9644 9.75493 11.9626 9.79195 11.9681C9.82897 11.9736 9.86454 11.9864 9.89663 12.0056L10.9558 12.6411L12.5485 11.0485C12.5749 11.022 12.6064 11.001 12.6409 10.9867C12.6755 10.9724 12.7126 10.965 12.75 10.965C12.7874 10.965 12.8245 10.9724 12.8591 10.9867L11.2015 13.2016ZM11.2015 13.2016L12.9515 11.4516C12.978 11.4252 12.999 11.3937 13.0133 11.3592C13.0277 11.3246 13.0351 11.2875 13.0351 11.2501C13.0351 11.2126 13.0277 11.1755 13.0133 11.141C12.999 11.1064 12.978 11.0749 12.9515 11.0485L11.2015 13.2016Z" fill="black" stroke="black" stroke-width="0.07"/>
</svg>
